<?xml version="1.0" encoding="utf-8"?>
<!-- Generator: Adobe Illustrator 18.1.1, SVG Export Plug-In . SVG Version: 6.00 Build 0)  -->
<svg version="1.1" id="Layer_1" xmlns="http://www.w3.org/2000/svg" xmlns:xlink="http://www.w3.org/1999/xlink" x="0px" y="0px"
	 viewBox="0 0 156 156" enable-background="new 0 0 156 156" xml:space="preserve">
<g>
	<path fill="#8CC44B" d="M156,88.2V67.8l-20.2-3.4c-1.5-6.4-4-12.4-7.4-17.8L140.3,30L126,15.7l-16.6,11.9
		c-5.4-3.4-11.4-5.9-17.8-7.4L88.2,0H67.8l-3.4,20.2c-6.4,1.5-12.4,4-17.8,7.4L30,15.7L15.7,30l11.9,16.6
		c-3.4,5.4-5.9,11.4-7.4,17.8L0,67.8v20.3l20.2,3.4c1.5,6.4,4,12.4,7.4,17.8L15.7,126L30,140.3l16.6-11.9c5.4,3.4,11.4,5.9,17.8,7.4
		l3.4,20.2h20.3l3.4-20.2c6.4-1.5,12.4-4,17.8-7.4l16.6,11.9l14.4-14.4l-11.9-16.6c3.4-5.4,5.9-11.4,7.4-17.8L156,88.2z M78,119.5
		c-22.9,0-41.5-18.6-41.5-41.5c0-22.9,18.6-41.5,41.5-41.5s41.5,18.6,41.5,41.5C119.5,100.9,100.9,119.5,78,119.5z"/>
	<path fill="#8CC44B" d="M98.4,91.9l-4.6-7.6c0.8-1.9,1.2-4.1,1.2-6.3c0-2.2-0.4-4.3-1.2-6.3l4.6-7.6l-6.5-6.5l-7.6,4.6
		C82.3,61.4,80.2,61,78,61c-2.2,0-4.3,0.4-6.3,1.2l-7.6-4.6l-6.5,6.5l4.6,7.6C61.4,73.6,61,75.8,61,78c0,2.2,0.4,4.3,1.2,6.3
		l-4.6,7.6l6.5,6.5l7.6-4.6c1.9,0.8,4.1,1.2,6.3,1.2c2.2,0,4.3-0.4,6.3-1.2l7.6,4.6L98.4,91.9z"/>
</g>
</svg>
